<?xml version="1.0" encoding="UTF-8" standalone="no"?>
<!-- Created with Inkscape (http://www.inkscape.org/) -->

<svg
   xmlns:dc="http://purl.org/dc/elements/1.1/"
   xmlns:cc="http://creativecommons.org/ns#"
   xmlns:rdf="http://www.w3.org/1999/02/22-rdf-syntax-ns#"
   xmlns:svg="http://www.w3.org/2000/svg"
   xmlns="http://www.w3.org/2000/svg"
   xmlns:sodipodi="http://sodipodi.sourceforge.net/DTD/sodipodi-0.dtd"
   xmlns:inkscape="http://www.inkscape.org/namespaces/inkscape"
   width="685.71869"
   height="685.71875"
   id="svg2"
   version="1.1"
   inkscape:version="0.48.5 r10040"
   sodipodi:docname="Namebock.svg">
  <defs
     id="defs4" />
  <sodipodi:namedview
     id="base"
     pagecolor="#ffffff"
     bordercolor="#666666"
     borderopacity="1.0"
     inkscape:pageopacity="0.0"
     inkscape:pageshadow="2"
     inkscape:zoom="0.12374369"
     inkscape:cx="967.58618"
     inkscape:cy="134.11522"
     inkscape:document-units="px"
     inkscape:current-layer="layer1"
     showgrid="false"
     showguides="true"
     inkscape:guide-bbox="true"
     inkscape:window-width="1920"
     inkscape:window-height="1017"
     inkscape:window-x="-8"
     inkscape:window-y="-8"
     inkscape:window-maximized="1"
     fit-margin-top="0"
     fit-margin-left="0"
     fit-margin-right="0"
     fit-margin-bottom="0" />
  <metadata
     id="metadata7">
    <rdf:RDF>
      <cc:Work
         rdf:about="">
        <dc:format>image/svg+xml</dc:format>
        <dc:type
           rdf:resource="http://purl.org/dc/dcmitype/StillImage" />
        <dc:title></dc:title>
      </cc:Work>
    </rdf:RDF>
  </metadata>
  <g
     inkscape:label="Layer 1"
     inkscape:groupmode="layer"
     id="layer1">
    <path
       style="fill:#ffffff;fill-opacity:1;fill-rule:nonzero;stroke:none"
       d="m 0,0 0,685.71875 685.7187,0 L 685.7187,0 0,0 z m 61.4062,186.21875 41.125,0 c 7.9211,1.3e-4 14.7706,0.78382 20.5,2.34375 5.7293,1.56018 10.4335,3.77613 14.125,6.65625 3.6913,2.88037 6.4186,6.39331 8.1875,10.5625 1.7687,4.16942 2.6562,8.87534 2.6563,14.09375 -1e-4,3.18246 -0.5113,6.2175 -1.5,9.15625 -0.9889,2.93893 -2.4896,5.69747 -4.5,8.21875 -2.0106,2.52144 -4.5322,4.7707 -7.5625,6.75 -3.0305,1.97944 -6.5768,3.58405 -10.6563,4.84375 9.4189,1.86042 16.5427,5.26751 21.3438,10.1875 4.8009,4.92009 7.1874,11.39921 7.1875,19.4375 -1e-4,5.46023 -0.9896,10.4368 -3,14.9375 -2.0106,4.50075 -4.973,8.35462 -8.8438,11.59375 -3.8709,3.23914 -8.6103,5.76063 -14.2187,7.53125 -5.6086,1.77063 -11.9879,2.65625 -19.1875,2.65625 l -45.6563,0 0,-128.96875 z m 118.1875,0 36.4375,0 c 8.1592,1.3e-4 15.2163,0.8191 21.1563,2.46875 5.9398,1.64991 10.8478,4.03626 14.7187,7.15625 3.8708,3.12023 6.7333,6.87218 8.5938,11.28125 1.8602,4.40928 2.7811,9.3524 2.7812,14.8125 -1e-4,4.55942 -0.7153,8.82076 -2.1562,12.78125 -1.4412,3.96065 -3.52,7.50691 -6.25,10.65625 -2.7302,3.14948 -6.0707,5.8415 -10,8.0625 -3.9295,2.22113 -8.3946,3.89239 -13.375,5.03125 2.1606,1.25982 4.1003,3.09771 5.7812,5.5 l 37.625,51.21875 -15.5,0 c -3.1788,0 -5.4986,-1.22656 -7,-3.6875 l -33.5,-46.09375 c -1.0181,-1.44282 -2.1113,-2.46381 -3.3125,-3.09375 -1.2012,-0.62983 -3.0076,-0.9687 -5.4062,-0.96875 l -13.2188,0 0,53.84375 -17.375,0 0,-128.96875 z m 99.25,0 15.3125,0 c 1.5601,1.3e-4 2.7866,0.37635 3.6875,1.15625 0.9009,0.78015 1.6846,1.73621 2.3438,2.875 l 29.5312,50.125 c 1.2012,2.09846 2.1907,4.07722 3,5.9375 0.8093,1.86042 1.5595,3.69831 2.2188,5.5 0.6628,-1.86028 1.3761,-3.70208 2.1562,-5.5625 0.78,-1.86028 1.7712,-3.83513 2.9688,-5.875 L 369.5,190.25 c 0.5382,-0.95935 1.2572,-1.88012 2.1875,-2.75 0.9301,-0.86962 2.1547,-1.28112 3.6562,-1.28125 l 15.4688,0 -47.3438,77.65625 0,51.3125 -17.3437,0 0,-51.3125 -47.2813,-77.65625 z m 164.9688,0 17.7187,0 51.5938,128.96875 -13.5,0 c -1.5602,0 -2.8219,-0.40748 -3.7813,-1.1875 -0.9595,-0.78003 -1.6766,-1.76757 -2.1562,-2.96875 l -12.0625,-31.125 -57.875,0 -12.0625,31.125 c -0.4212,1.08033 -1.1364,2.03455 -2.1563,2.875 -1.0199,0.84045 -2.2798,1.28125 -3.7812,1.28125 l -13.5,0 51.5625,-128.96875 z m 85.5312,0 9,0 c 1.5601,1.3e-4 2.718,0.17261 3.4688,0.5625 0.7507,0.39014 1.603,1.20887 2.5625,2.40625 l 74.6875,97.1875 c -0.1796,-1.56003 -0.2834,-3.06088 -0.3438,-4.53125 -0.061,-1.47031 -0.094,-2.9006 -0.094,-4.28125 l 0,-91.34375 15.3125,0 0,128.96875 -8.8438,0 c -1.377,0 -2.5074,-0.23901 -3.4375,-0.71875 -0.9303,-0.47973 -1.8492,-1.29859 -2.75,-2.4375 l -74.625,-97.125 c 0.1172,1.50156 0.2208,2.96714 0.2813,4.40625 0.06,1.4393 0.094,2.76767 0.094,3.96875 l 0,91.90625 -15.3125,0 0,-128.96875 z m -450.468697,13.75 0,44.03125 23.031197,0 c 4.9182,7e-5 9.1814,-0.54461 12.7813,-1.625 3.5998,-1.08025 6.5974,-2.58098 8.9687,-4.5 2.3712,-1.91887 4.111,-4.23857 5.25,-6.96875 1.1389,-2.73002 1.7187,-5.72769 1.7188,-8.96875 -1e-4,-7.55849 -2.2845,-13.11488 -6.8438,-16.65625 -4.5594,-3.54114 -11.648,-5.31238 -21.25,-5.3125 l -23.656197,0 z m 118.093697,0 0,48.6875 18.25,0 c 5.0976,7e-5 9.5979,-0.61322 13.4688,-1.84375 3.8708,-1.2304 7.1094,-2.97014 9.7187,-5.21875 2.6092,-2.24846 4.5548,-4.91105 5.875,-8.03125 1.3201,-3.12003 1.9999,-6.59561 2,-10.375 -1e-4,-7.68301 -2.5549,-13.47475 -7.625,-17.375 -5.0702,-3.90003 -12.6055,-5.84363 -22.625,-5.84375 l -19.0625,0 z m 255.6563,2.71875 c -0.6629,2.46105 -1.3077,4.71227 -1.9375,6.78125 -0.63,2.0692 -1.2432,3.87754 -1.8438,5.4375 l -20.25,52.40625 48.1563,0 -20.25,-52.5 c -1.3184,-3.24087 -2.6153,-7.26527 -3.875,-12.125 z m -373.749997,53.71875 0,44.90625 27.906197,0 c 4.9804,10e-6 9.2419,-0.57799 12.8125,-1.71875 3.5705,-1.14073 6.5035,-2.74339 8.8125,-4.8125 2.3089,-2.06907 4.0134,-4.52402 5.0938,-7.375 1.0802,-2.85092 1.6249,-5.98581 1.625,-9.40625 -1e-4,-6.65767 -2.3531,-11.91035 -7.0625,-15.78125 -4.7096,-3.87079 -11.8353,-5.81244 -21.375,-5.8125 l -27.812497,0 z m 25.374997,111.25 c 8.3118,1.3e-4 15.8924,1.15797 22.75,3.4375 6.8574,2.27979 12.8403,5.58874 17.9687,9.90625 l -4.875,8.28125 c -0.6258,0.90098 -1.2776,1.5515 -1.9687,2 -0.6913,0.44872 -1.6069,0.6876 -2.7188,0.6875 -1.1754,10e-5 -2.5359,-0.51125 -4.0937,-1.53125 -1.558,-1.01979 -3.5155,-2.14442 -5.9063,-3.375 -2.3909,-1.23035 -5.2661,-2.35499 -8.625,-3.375 -3.359,-1.01978 -7.4371,-1.53114 -12.2187,-1.53125 -4.5027,1.1e-4 -8.474997,0.51158 -11.937497,1.5625 -3.4626,1.05114 -6.3665,2.48144 -8.6875,4.28125 -2.3211,1.80003 -4.0726,3.91404 -5.25,6.34375 -1.1775,2.4299 -1.75,5.05528 -1.75,7.875 0,3.59995 1.0183,6.59945 3.0625,8.96875 2.0441,2.36947 4.7347,4.38167 8.0937,6.0625 3.359,1.68098 7.178,3.14461 11.4375,4.375 4.259497,1.23054 8.624897,2.49238 13.093797,3.8125 4.4687,1.32026 8.8342,2.81903 13.0937,4.46875 4.2595,1.64985 8.0472,3.73054 11.4063,6.25 3.3589,2.51959 6.0807,5.62103 8.125,9.28125 2.044,3.66032 3.0624,8.16069 3.0625,13.5 -1e-4,5.63968 -1.1264,10.92568 -3.3438,15.875 -2.2175,4.94936 -5.4593,9.24598 -9.7187,12.90625 -4.2596,3.66028 -9.4875,6.55603 -15.6875,8.65625 -6.2002,2.10021 -13.2318,3.15625 -21.124997,3.15625 -9.631,0 -18.4124,-1.5321 -26.3438,-4.5625 C 64.1624,491.93836 57.3915,487.84743 51.7812,482.6875 l 5.8125,-8.28125 c 0.5539,-0.65915 1.2343,-1.20579 2.0313,-1.65625 0.7969,-0.45042 1.688,-0.68748 2.6562,-0.6875 1.4544,2e-5 3.098,0.68179 4.968803,2.03125 1.8708,1.34951 4.2261,2.81704 7.0312,4.4375 2.8051,1.6205 6.2049,3.11928 10.1875,4.46875 3.9826,1.3495 8.8439,2.03126 14.5938,2.03125 4.777297,10e-6 9.039597,-0.57983 12.781197,-1.71875 3.7416,-1.1389 6.902,-2.74157 9.5,-4.8125 2.5979,-2.0709 4.5841,-4.55722 5.9688,-7.4375 1.3845,-2.88022 2.0936,-6.08737 2.0937,-9.625 -1e-4,-3.90011 -1.0184,-7.07222 -3.0625,-9.5625 -2.0442,-2.49018 -4.7395,-4.60029 -8.0625,-6.28125 -3.3231,-1.68086 -7.1134,-3.07991 -11.375,-4.25 -4.2616,-1.16999 -8.627097,-2.3963 -13.093697,-3.625 -4.4667,-1.22858 -8.8343,-2.62945 -13.0938,-4.25 -4.2595,-1.62042 -8.0498,-3.73247 -11.375,-6.3125 -3.3251,-2.57987 -6.018303,-5.81658 -8.062503,-9.6875 -2.0441,-3.87077 -3.0625,-8.64542 -3.0625,-14.34375 0,-4.55923 1.0184,-8.95778 3.0625,-13.21875 2.0442,-4.26075 5.027303,-8.04407 8.906303,-11.34375 3.879,-3.29943 8.6611,-5.95801 14.375,-7.9375 5.7138,-1.97924 12.2761,-2.96862 19.687497,-2.96875 z m 69.5625,1.4375 91.75,0 0,14.21875 -71.4688,0 0,42.84375 57.875,0 0,13.6875 -57.875,0 0,44 71.4688,0 0,14.21875 -91.75,0 0,-128.96875 z m 120.5625,0 91.75,0 0,14.21875 -71.5,0 0,42.84375 57.875,0 0,13.6875 -57.875,0 0,44 71.5,0 0,14.21875 -91.75,0 0,-128.96875 z m 120.5312,0 20.1563,0 0,114.3125 64.4375,0 0,14.65625 -84.5938,0 0,-128.96875 z m 89.5,0 17.6563,0 c 1.801,1.3e-4 3.2412,0.40759 4.2812,1.1875 1.04,0.78015 1.9265,1.73621 2.6875,2.875 l 34.0938,50.125 c 1.3866,2.09846 2.5343,4.07722 3.4687,5.9375 0.9343,1.86042 1.7702,3.6983 2.5313,5.5 0.7652,-1.86029 1.5994,-3.73333 2.5,-5.59375 0.9004,-1.86028 2.0549,-3.80388 3.4375,-5.84375 l 33.9687,-50.125 c 0.6214,-0.95934 1.4886,-1.88012 2.5625,-2.75 1.0738,-0.86963 2.454,-1.31237 4.1875,-1.3125 l 17.875,0 -54.6562,77.6875 0,51.28125 -20.0313,0 0,-51.28125 -54.5625,-77.6875 z"
       id="rect2996"
       inkscape:connector-curvature="0" />
    <g
       style="font-size:40px;font-style:normal;font-variant:normal;font-weight:normal;font-stretch:normal;line-height:125%;letter-spacing:0px;word-spacing:0px;fill:#000000;fill-opacity:1;stroke:none;font-family:Lato;-inkscape-font-specification:Lato"
       id="text3774" />
    <g
       transform="scale(1.074463,0.93069747)"
       style="font-size:42.97851944px;font-style:normal;font-variant:normal;font-weight:normal;font-stretch:normal;line-height:125%;letter-spacing:0px;word-spacing:0px;fill:#000000;fill-opacity:1;stroke:none;font-family:Lato;-inkscape-font-specification:Lato"
       id="text3774-5" />
  </g>
</svg>
